<svg id="Capa_1" enable-background="new 0 0 512 512" height="512" viewBox="0 0 512 512" width="512" xmlns="http://www.w3.org/2000/svg"><g><path d="m209.402 160.668c-6.203 0-12.035 2.416-16.422 6.802l-26.446 26.447-26.446-26.447c-4.387-4.386-10.219-6.802-16.422-6.802s-12.035 2.416-16.422 6.802c-4.387 4.387-6.803 10.219-6.803 16.422s2.416 12.035 6.803 16.421l59.29 59.291 59.29-59.291c4.387-4.386 6.803-10.218 6.803-16.421s-2.416-12.035-6.803-16.421c-4.386-4.388-10.219-6.803-16.422-6.803z"/><path d="m0 59.966v306.083h210.584l45.76 85.985 43.455-85.985h212.201v-306.083zm247.037 161.561-80.503 80.503-80.503-80.504c-10.053-10.052-15.59-23.418-15.59-37.635s5.537-27.583 15.59-37.635c10.052-10.052 23.418-15.588 37.635-15.588 14.216 0 27.582 5.536 37.635 15.588l5.233 5.234 5.233-5.233c10.053-10.053 23.419-15.589 37.635-15.589 14.217 0 27.583 5.536 37.635 15.589 10.053 10.052 15.59 23.418 15.59 37.635s-5.537 27.582-15.59 37.635zm182.777 75.964-100.918-.251.095-25.5 4.118-4.322c.114-.121 14.465-15.478 47.28-62.365l.189-.271c7.822-11.175 12.248-17.89 12.248-25.951 0-13.704-9.964-19.838-19.838-19.838-9.461 0-17.647 6.719-19.466 15.976l-29.438-5.782c4.575-23.29 25.142-40.194 48.903-40.194 28.412 0 49.838 21.426 49.838 49.838 0 17.91-8.983 30.744-17.671 43.155l-.188.27c-14.167 20.241-25.048 34.854-32.996 45.091l57.917.144z"/></g></svg>