<svg id="svg" xmlns="http://www.w3.org/2000/svg" style="fill: rgba(255,255,255,0.85);"
    xmlns:xlink="http://www.w3.org/1999/xlink" width="400" height="400" viewBox="0, 0, 400,400">
    <g id="svgg">
        <path id="path0"
            d="M71.026 11.156 C 65.602 14.811,63.222 23.043,66.031 28.430 C 68.994 34.111,85.411 55.563,87.744 56.801 C 101.755 64.239,113.582 48.369,104.219 34.694 C 95.656 22.186,87.403 11.708,85.227 10.583 C 81.578 8.696,74.236 8.992,71.026 11.156 M314.368 10.862 C 312.244 12.157,298.076 30.586,293.751 37.680 C 286.677 49.282,300.669 63.501,312.387 56.618 C 314.835 55.180,331.091 33.948,333.969 28.430 C 339.861 17.133,325.376 4.150,314.368 10.862 M191.425 30.889 C 178.643 34.475,176.475 37.344,157.769 75.441 C 149.237 92.816,142.132 107.031,141.979 107.031 C 138.944 107.031,72.068 117.442,69.718 118.281 C 56.232 123.091,47.402 138.289,49.889 152.408 C 51.738 162.904,52.406 163.753,80.645 191.476 L 106.580 216.936 100.853 250.348 C 93.262 294.629,93.504 299.083,104.065 309.630 C 110.929 316.485,115.759 318.359,126.563 318.359 L 135.547 318.359 142.188 314.958 C 145.840 313.087,160.111 305.616,173.902 298.356 C 187.692 291.096,199.437 285.156,200.000 285.156 C 200.563 285.156,212.308 291.096,226.098 298.356 C 239.889 305.616,254.160 313.087,257.813 314.958 L 264.453 318.359 273.438 318.359 C 284.241 318.359,289.071 316.485,295.935 309.630 C 306.500 299.079,306.744 294.587,299.159 250.309 L 293.440 216.925 319.327 191.470 C 347.324 163.941,348.324 162.689,350.006 153.031 C 352.572 138.295,344.003 123.195,330.282 118.274 C 328.451 117.617,312.715 114.997,295.313 112.452 C 277.910 109.907,262.332 107.611,260.695 107.351 L 257.718 106.878 241.881 74.728 C 226.385 43.268,225.942 42.483,221.252 38.152 C 213.344 30.848,201.690 28.010,191.425 30.889 M201.659 57.864 C 202.630 58.384,209.527 71.527,219.991 92.801 C 236.670 126.706,238.351 129.637,242.297 131.691 C 243.432 132.281,261.291 135.233,281.984 138.250 C 302.677 141.268,320.294 144.103,321.132 144.552 C 325.336 146.802,324.132 148.283,295.508 176.070 C 268.614 202.178,264.844 206.479,264.844 211.054 C 264.844 212.273,267.656 229.622,271.094 249.609 C 277.758 288.358,277.845 289.030,276.406 290.469 C 274.527 292.348,271.735 291.102,238.695 273.641 L 205.078 255.876 200.000 255.888 L 194.922 255.899 161.328 273.648 C 128.335 291.080,125.478 292.353,123.594 290.469 C 122.155 289.030,122.242 288.358,128.906 249.609 C 132.344 229.622,135.156 212.328,135.156 211.178 C 135.156 206.335,132.014 202.731,104.680 176.236 C 75.856 148.295,74.647 146.811,78.856 144.558 C 79.688 144.113,97.281 141.289,117.951 138.284 C 138.622 135.278,156.486 132.324,157.650 131.718 C 161.658 129.632,163.297 126.783,180.026 92.801 C 197.325 57.663,198.310 56.072,201.659 57.864 M20.958 229.172 C 2.686 235.199,0.000 237.373,0.000 246.132 C 0.000 260.302,8.236 262.559,31.641 254.803 C 50.781 248.461,53.646 246.013,52.964 236.583 C 52.003 223.304,44.214 221.500,20.958 229.172 M353.117 225.977 C 345.311 231.289,344.638 243.235,351.846 248.548 C 355.114 250.958,382.870 259.731,387.154 259.709 C 394.795 259.670,400.000 254.150,400.000 246.086 C 400.000 237.293,397.042 234.965,378.197 228.929 C 361.571 223.604,357.336 223.105,353.117 225.977 M192.961 338.477 C 186.837 342.645,185.975 345.753,185.975 363.672 C 185.975 385.014,188.894 390.625,200.000 390.625 C 211.106 390.625,214.025 385.014,214.025 363.672 C 214.025 342.330,211.106 336.719,200.000 336.719 C 196.665 336.719,194.894 337.161,192.961 338.477 "
            stroke="none" fill-rule="evenodd"></path>
    </g>
</svg>