<svg id="svg" xmlns="http://www.w3.org/2000/svg" xmlns:xlink="http://www.w3.org/1999/xlink" width="400" height="400"
    viewBox="0, 0, 400,400">
    <g id="svgg">
        <path id="path0"
            d="M44.248 83.957 C 28.866 89.440,30.457 113.001,46.440 116.427 C 49.223 117.024,95.415 117.204,202.734 117.035 L 355.078 116.797 358.203 115.115 C 371.457 107.982,369.754 87.966,355.529 83.704 C 350.732 82.267,48.300 82.512,44.248 83.957 M44.441 183.886 C 30.736 188.804,28.802 207.321,41.232 214.628 L 44.922 216.797 200.000 216.797 L 355.078 216.797 358.768 214.628 C 369.678 208.215,369.678 191.785,358.768 185.372 L 355.078 183.203 201.172 183.038 C 76.719 182.905,46.725 183.067,44.441 183.886 M44.347 283.586 C 30.307 287.840,27.872 307.234,40.450 314.628 L 44.141 316.797 199.609 316.797 L 355.078 316.797 358.768 314.628 C 370.250 307.878,369.510 291.120,357.438 284.498 C 354.835 283.070,48.991 282.180,44.347 283.586 "
            stroke="none" fill="rgba(255,255,255,0.85)" fill-rule="evenodd"></path>
    </g>
</svg>