<svg height="681pt" viewBox="-54 -21 681 681.33464" style="fill: rgba(255,255,255,0.85);" width="681pt"
    xmlns="http://www.w3.org/2000/svg">
    <path
        d="m571.117188 638.421875c0-84.582031-36.402344-163.523437-100.277344-218.355469-2.449219-28.648437-12.28125-49.5-29.878906-63.535156-10.609376-8.460938-23.179688-13.617188-37.609376-16.234375 19.242188-25.164063 30.695313-56.597656 30.695313-90.652344 0-14.597656-2.128906-28.976562-6.226563-42.730469v-206.8320308l-80.464843 55.9765628-62.835938-55.140625-62.835937 55.140625-80.460938-55.9765628v206.8085938c-4.101562 13.746094-6.234375 28.132813-6.234375 42.753906 0 34.054688 11.457031 65.488281 30.703125 90.652344-14.433594 2.617187-27.003906 7.773437-37.613281 16.234375-17.597656 14.035156-27.425781 34.886719-29.878906 63.535156-63.875 54.832032-100.277344 133.773438-100.277344 218.355469h49.84375c0-59.066406 21.480469-114.796875 59.976563-158.019531 9.8125 25.015625 26.574218 50.464844 49.507812 74.683594 33.382812 35.257812 77.71875 65.367187 118.601562 80.53125l8.667969 3.21875 8.675781-3.222657c42.519532-15.789062 86.484376-47.183593 120.617188-86.136719 20.425781-23.304687 35.789062-47.519531 45.496094-71.261718 39.738281 43.519531 61.964844 100.136718 61.964844 160.207031zm-267.765626-290.902344c-6.101562 1.175781-12.394531 1.808594-18.832031 1.808594-6.441406 0-12.730469-.632813-18.835937-1.808594-.75-.152343-1.492188-.300781-2.234375-.453125-44.878907-9.699218-78.617188-49.6875-78.617188-97.421875 0-12.953125 2.523438-25.613281 7.285157-37.382812h184.796874c4.765626 11.777343 7.292969 24.449219 7.292969 37.382812 0 47.734375-33.738281 87.722657-78.609375 97.421875-.75.152344-1.496094.300782-2.246094.453125zm-112.285156-252.046875 34.175782 23.777344 59.277343-52.023438 59.277344 52.023438 34.179687-23.777344v66.945313h-186.910156zm185.265625 421.15625c-26.070312 29.75-59.824219 54.933594-91.847656 68.785156-64.929687-27.699218-135.640625-97.15625-137.027344-153.160156.363281-18.484375 4.292969-30.851562 11.699219-36.757812 15.894531-12.675782 56.519531-7.199219 92.785156.09375 1.792969.398437 3.601563.769531 5.425782 1.105468.742187.15625 1.488281.3125 2.230468.46875v96.710938h49.84375v-96.710938c.746094-.15625 1.488282-.316406 2.238282-.472656 1.816406-.332031 3.621093-.703125 5.414062-1.101562 36.269531-7.285156 76.898438-12.769532 92.796875-.09375 6.691406 5.339844 10.539063 15.976562 11.480469 31.625-2.007813 26.59375-18.167969 58.84375-45.039063 89.507812zm0 0" />
</svg>