<?xml version="1.0"?>
<svg xmlns="http://www.w3.org/2000/svg" xmlns:xlink="http://www.w3.org/1999/xlink" xmlns:svgjs="http://svgjs.com/svgjs" version="1.1" width="512" height="512" x="0" y="0" viewBox="0 0 512 512" style="enable-background:new 0 0 512 512" xml:space="preserve" class=""><g><g xmlns="http://www.w3.org/2000/svg"><path d="m497 201h-22.785c-5.339-21.312-13.722-41.546-25.026-60.407l16.115-16.115c5.858-5.858 5.858-15.355 0-21.213l-56.569-56.569c-5.858-5.858-15.355-5.858-21.213 0l-16.115 16.115c-18.859-11.304-39.096-19.687-60.407-25.026v-22.785c0-8.284-6.716-15-15-15h-80c-8.284 0-15 6.716-15 15v22.785c-21.311 5.338-41.548 13.722-60.407 25.026l-16.115-16.115c-5.858-5.858-15.355-5.858-21.213 0l-56.568 56.569c-5.858 5.858-5.858 15.355 0 21.213l16.114 16.115c-11.304 18.86-19.687 39.094-25.026 60.407h-22.785c-8.284 0-15 6.716-15 15v80c0 8.284 6.716 15 15 15h22.785c5.339 21.313 13.722 41.547 25.026 60.407l-16.115 16.115c-5.858 5.858-5.858 15.355 0 21.213l56.568 56.568c5.858 5.858 15.355 5.858 21.213 0l16.115-16.115c18.86 11.303 39.097 19.687 60.407 25.025v22.787c0 8.284 6.716 15 15 15h80c8.284 0 15-6.716 15-15v-22.786c21.31-5.338 41.547-13.722 60.407-25.025l16.115 16.114c5.858 5.858 15.355 5.858 21.213 0l56.569-56.568c5.858-5.858 5.858-15.355 0-21.213l-16.115-16.115c11.304-18.861 19.687-39.095 25.025-60.407h22.787c8.284 0 15-6.716 15-15v-80c0-8.284-6.716-15-15-15zm-241 210c-85.467 0-155-69.533-155-155s69.533-155 155-155 155 69.533 155 155-69.533 155-155 155z" fill="#000000" data-original="#000000" style="" class=""/><path d="m256 131c-68.925 0-125 56.075-125 125s56.075 125 125 125 125-56.075 125-125-56.075-125-125-125zm74.246 93.18-84.853 84.853c-2.929 2.929-6.768 4.394-10.606 4.394s-7.678-1.464-10.606-4.394l-42.426-42.426c-5.858-5.858-5.858-15.355 0-21.213 5.857-5.858 15.355-5.858 21.213 0l31.82 31.819 74.247-74.246c5.857-5.858 15.355-5.857 21.213 0 5.856 5.858 5.856 15.356-.002 21.213z" fill="#000000" data-original="#000000" style="" class=""/></g></g></svg>
