<svg id="svg" xmlns="http://www.w3.org/2000/svg" xmlns:xlink="http://www.w3.org/1999/xlink" width="400" height="400"
    viewBox="0, 0, 400,400">
    <g id="svgg">
        <path id="path0"
            d="M30.630 19.942 C -8.427 28.423,-10.594 83.780,27.676 95.420 C 35.440 97.781,364.748 97.668,372.696 95.301 C 410.894 83.925,408.168 28.205,369.008 19.908 C 361.258 18.266,38.199 18.298,30.630 19.942 M28.516 162.416 C -10.107 173.677,-9.421 227.757,29.472 237.835 C 36.694 239.706,363.306 239.706,370.528 237.835 C 409.869 227.640,409.869 172.360,370.528 162.165 C 362.855 160.177,35.371 160.417,28.516 162.416 M26.384 304.953 C -11.082 317.748,-7.763 371.881,30.992 380.092 C 39.006 381.790,360.994 381.790,369.008 380.092 C 406.859 372.072,411.166 319.860,375.176 305.322 L 370.703 303.516 201.172 303.337 L 31.641 303.158 26.384 304.953 "
            stroke="none" fill="rgba(255,255,255,0.85)" fill-rule="evenodd"></path>
    </g>
</svg>